# xmcd
#
# Track frame offsets:
#	150
#	16287
#	26530
#	38220
#	52382
#	66747
#	81517
#	91460
#	110604
#	124807
#	131490
#	145115
#	155500
#
# Disc length: 2321 seconds
#
# Revision: 1
# Processed by: cddbd v1.4PL0 Copyright (c) Steve Scherf et al.
# Submitted via: EasyCDDAExtractor 5.0.6
#
DISCID=bf090f0d
DTITLE=Various Artist - BARAONNA
DYEAR=1994
DGENRE=Pop
TTITLE0=I GIARDINI D'ALHAMBRA
TTITLE1=NIENTE SWING
TTITLE2=COLA
TTITLE3=NINNA NANNA D'ARGIENTO
TTITLE4=FUITE
TTITLE5=MEDITERRANEA GENTE
TTITLE6=SCARAMACAI
TTITLE7=COME DI
TTITLE8=ALL'URENTE
TTITLE9=FUGA IN RE
TTITLE10=BARAONNA - PALCOSCENICO
TTITLE11=BRIGANTE
TTITLE12=1799
EXTD=
EXTT0=
EXTT1=
EXTT2=
EXTT3=
EXTT4=
EXTT5=
EXTT6=
EXTT7=
EXTT8=
EXTT9=
EXTT10=
EXTT11=
EXTT12=
PLAYORDER=
